<svg width="26" height="26" viewBox="0 0 32 32" fill="none" xmlns="http://www.w3.org/2000/svg">
<path d="M13.0001 13V1" stroke="#C4C4CC" stroke-width="2" stroke-linecap="round" stroke-linejoin="round"/>
<path d="M23.3876 7L2.61261 19" stroke="#C4C4CC" stroke-width="2" stroke-linecap="round" stroke-linejoin="round"/>
<path d="M1.20012 15.2C1.0637 14.4747 0.996728 13.738 1.00012 13C0.998543 10.5182 1.76727 8.09716 3.20022 6.07089C4.63316 4.04461 6.65969 2.51303 9.00012 1.6875V10.6875L1.20012 15.2Z" stroke="#C4C4CC" stroke-width="2" stroke-linecap="round" stroke-linejoin="round"/>
<path d="M13.0001 1C15.1029 1.00024 17.1686 1.55298 18.9904 2.60287C20.8123 3.65275 22.3263 5.16292 23.3807 6.9821C24.4352 8.80128 24.9932 10.8656 24.9987 12.9683C25.0043 15.071 24.4572 17.1382 23.4124 18.963C22.3675 20.7877 20.8615 22.3058 19.0453 23.3653C17.229 24.4248 15.1662 24.9885 13.0635 24.9998C10.9609 25.0112 8.89212 24.4698 7.06452 23.43C5.23693 22.3901 3.71464 20.8883 2.65015 19.075" stroke="#C4C4CC" stroke-width="2" stroke-linecap="round" stroke-linejoin="round"/>
</svg>
